<svg width="1033" height="1006" viewBox="0 0 1033 1006" fill="none" xmlns="http://www.w3.org/2000/svg">
<g clip-path="url(#clip0_55_300)">
<path fill-rule="evenodd" clip-rule="evenodd" d="M0.0331421 0.511597V444.396H58.7311V249.721H260.376V200.894H58.7311V49.3389H287.308V0.511597H0.0331421ZM532.361 1005.86L675.369 73.6831L974.56 444.396H1033.26V0.511597H974.56V356.888L686.594 0.511597H627.206L626.423 5.88871L491.579 892.588L386.652 561.973H384.581H330.717H328.645L211.573 927.274L91.0908 561.973H32.3928L180.174 1005.86H186.389H237.49H242.324L357.318 647.041L469.52 1005.86H474.354H527.527H532.361ZM710.155 561.973V1005.86H997.43V957.03H768.853V802.305H976.022V754.112H768.853V610.8H996.048V561.973H710.155ZM389.375 444.396V0.511597H448.073V444.396H389.375Z" fill="black"/>
</g>
<defs>
<clipPath id="clip0_55_300">
<rect width="1033" height="1006" fill="white"/>
</clipPath>
</defs>
</svg>
